<svg width="25" height="24" viewBox="0 0 25 24" fill="none" xmlns="http://www.w3.org/2000/svg">
<path d="M7.281 5.34078L5.481 3.55078L4.071 4.96078L5.861 6.75078L7.281 5.34078ZM1.521 11.0008H4.521V13.0008H1.521V11.0008ZM11.521 1.05078H13.521V4.00078H11.521V1.05078ZM19.561 3.54578L20.969 4.95278L19.179 6.74278L17.772 5.33478L19.561 3.54578ZM17.761 18.6608L19.551 20.4608L20.961 19.0508L19.161 17.2608L17.761 18.6608ZM20.521 11.0008H23.521V13.0008H20.521V11.0008ZM12.521 6.00078C9.211 6.00078 6.521 8.69078 6.521 12.0008C6.521 15.3108 9.211 18.0008 12.521 18.0008C15.831 18.0008 18.521 15.3108 18.521 12.0008C18.521 8.69078 15.831 6.00078 12.521 6.00078ZM12.521 16.0008C10.311 16.0008 8.521 14.2108 8.521 12.0008C8.521 9.79078 10.311 8.00078 12.521 8.00078C14.731 8.00078 16.521 9.79078 16.521 12.0008C16.521 14.2108 14.731 16.0008 12.521 16.0008ZM11.521 20.0008H13.521V22.9508H11.521V20.0008ZM4.071 19.0408L5.481 20.4508L7.271 18.6508L5.861 17.2408L4.071 19.0408Z" fill="#ECFBFA"/>
</svg>
