<svg width="29" height="17" viewBox="0 0 29 17" fill="none" xmlns="http://www.w3.org/2000/svg">
<path d="M15.891 8.79967C15.891 13.2179 12.3337 16.7998 7.94536 16.7998C3.55705 16.7998 0 13.219 0 8.79967C0 4.38033 3.55732 0.799805 7.94536 0.799805C12.3334 0.799805 15.891 4.38141 15.891 8.79967ZM24.6075 8.79967C24.6075 12.9589 22.8287 16.3303 20.6346 16.3303C18.4406 16.3303 16.6618 12.9578 16.6618 8.79967C16.6618 4.6415 18.4406 1.26899 20.6346 1.26899C22.8287 1.26899 24.6075 4.6415 24.6075 8.79967ZM28.1726 8.79967C28.1726 12.5262 27.5469 15.5468 26.7753 15.5468C26.0037 15.5468 25.378 12.5251 25.378 8.79967C25.378 5.07426 26.0037 2.05249 26.7756 2.05249C27.5475 2.05249 28.1726 5.07345 28.1726 8.79967Z" fill="#ECFBFA"/>
</svg>
