<svg width="27" height="27" viewBox="0 0 27 27" fill="none" xmlns="http://www.w3.org/2000/svg">
<path d="M24.0864 0.799805C25.191 0.799805 26.0864 1.69524 26.0864 2.7998V24.7998C26.0864 25.9044 25.191 26.7998 24.0864 26.7998H2.08643C0.981856 26.7998 0.0864258 25.9044 0.0864258 24.7998V2.7998C0.0864258 1.69524 0.981856 0.799805 2.08643 0.799805H24.0864ZM16.6616 11.0088C15.1017 11.0092 14.0794 12.0179 13.7866 12.6094H13.7485V11.2783H10.8394V20.8867H13.8647V15.6777C13.8647 14.2891 14.7441 13.6138 15.6411 13.6133C16.4901 13.6133 17.1488 14.0906 17.1489 15.6387V20.8867H20.1733V14.9443C20.1733 12.0094 18.3493 11.0088 16.6616 11.0088ZM5.99854 11.2715V20.8799H9.02295V11.2715H5.99854ZM7.51025 6.4668C6.54766 6.46719 5.76723 7.20051 5.76709 8.20312C5.76726 9.20586 6.54768 9.93906 7.51025 9.93945C8.47332 9.93945 9.25423 9.20612 9.25439 8.20312C9.25425 7.20024 8.47334 6.4668 7.51025 6.4668Z" fill="#ECFBFA"/>
</svg>
