<svg width="22" height="17" viewBox="0 0 22 17" fill="none" xmlns="http://www.w3.org/2000/svg">
<path d="M18.5834 1.40697C17.1642 0.740218 15.6661 0.267199 14.1271 0C13.9166 0.386331 13.726 0.783813 13.5563 1.19078C11.9171 0.937289 10.25 0.937289 8.61078 1.19078C8.44099 0.783855 8.25045 0.386377 8.03995 0C6.50003 0.269456 5.00087 0.743597 3.58031 1.41046C0.760113 5.6924 -0.00439727 9.86799 0.377858 13.9843C2.02943 15.2366 3.87802 16.1889 5.84325 16.8C6.28577 16.1892 6.67734 15.5413 7.0138 14.863C6.37473 14.6181 5.75791 14.3159 5.17049 13.9599C5.32509 13.8448 5.47629 13.7263 5.6224 13.6112C7.33167 14.4361 9.19725 14.8638 11.0861 14.8638C12.9749 14.8638 14.8405 14.4361 16.5498 13.6112C16.6976 13.735 16.8488 13.8535 17.0017 13.9599C16.4131 14.3164 15.7952 14.6192 15.155 14.8648C15.491 15.5427 15.8826 16.1901 16.3255 16.8C18.2924 16.1914 20.1425 15.2395 21.7943 13.9861C22.2428 9.21245 21.0281 5.07522 18.5834 1.40697ZM7.49799 11.4528C6.43278 11.4528 5.55274 10.4608 5.55274 9.24035C5.55274 8.01993 6.4022 7.01918 7.4946 7.01918C8.587 7.01918 9.46024 8.01993 9.44155 9.24035C9.42286 10.4608 8.5836 11.4528 7.49799 11.4528ZM14.6742 11.4528C13.6073 11.4528 12.7306 10.4608 12.7306 9.24035C12.7306 8.01993 13.5801 7.01918 14.6742 7.01918C15.7683 7.01918 16.6347 8.01993 16.616 9.24035C16.5974 10.4608 15.7598 11.4528 14.6742 11.4528Z" fill="#021019"/>
</svg>
