<svg width="140" height="72" viewBox="0 0 140 72" fill="none" xmlns="http://www.w3.org/2000/svg">
<path d="M105.744 46.44V37.896L106.104 38.232C105.992 38.936 105.728 39.544 105.312 40.056C104.912 40.568 104.408 40.96 103.8 41.232C103.208 41.504 102.56 41.64 101.856 41.64C100.864 41.64 99.9678 41.392 99.1678 40.896C98.3678 40.4 97.7278 39.688 97.2478 38.76C96.7838 37.816 96.5518 36.688 96.5518 35.376C96.5518 34.064 96.7998 32.944 97.2958 32.016C97.7918 31.088 98.4558 30.384 99.2878 29.904C100.12 29.408 101.032 29.16 102.024 29.16C102.728 29.16 103.368 29.304 103.944 29.592C104.536 29.864 105.024 30.256 105.408 30.768C105.808 31.264 106.072 31.856 106.2 32.544L105.84 32.664L106.032 29.4H108.312V46.44H105.744ZM102.408 39.552C103.08 39.552 103.664 39.384 104.16 39.048C104.656 38.712 105.04 38.232 105.312 37.608C105.6 36.968 105.744 36.216 105.744 35.352C105.744 34.456 105.608 33.704 105.336 33.096C105.064 32.488 104.68 32.024 104.184 31.704C103.688 31.384 103.112 31.224 102.456 31.224C101.416 31.224 100.6 31.6 100.008 32.352C99.4158 33.088 99.1198 34.104 99.1198 35.4C99.1198 36.696 99.4078 37.712 99.9838 38.448C100.56 39.184 101.368 39.552 102.408 39.552Z" fill="#ECFBFA"/>
<path d="M89.3728 41.64C88.1728 41.64 87.1168 41.392 86.2048 40.896C85.2928 40.4 84.5808 39.688 84.0688 38.76C83.5728 37.816 83.3248 36.696 83.3248 35.4C83.3248 34.104 83.5728 32.992 84.0688 32.064C84.5808 31.12 85.2848 30.4 86.1808 29.904C87.0768 29.408 88.0928 29.16 89.2288 29.16C90.3968 29.16 91.3888 29.4 92.2048 29.88C93.0208 30.36 93.6448 31.016 94.0768 31.848C94.5088 32.68 94.7248 33.624 94.7248 34.68C94.7248 34.968 94.7168 35.24 94.7008 35.496C94.6848 35.752 94.6608 35.976 94.6288 36.168H84.9808V34.2H93.5008L92.2288 34.584C92.2288 33.496 91.9568 32.664 91.4128 32.088C90.8688 31.496 90.1248 31.2 89.1808 31.2C88.4928 31.2 87.8928 31.36 87.3808 31.68C86.8688 32 86.4768 32.48 86.2048 33.12C85.9328 33.744 85.7968 34.512 85.7968 35.424C85.7968 36.32 85.9408 37.08 86.2288 37.704C86.5168 38.328 86.9248 38.8 87.4528 39.12C87.9808 39.44 88.6048 39.6 89.3248 39.6C90.1248 39.6 90.7728 39.448 91.2688 39.144C91.7648 38.84 92.1568 38.416 92.4448 37.872L94.4848 38.832C94.1968 39.408 93.8048 39.912 93.3088 40.344C92.8288 40.76 92.2528 41.08 91.5808 41.304C90.9088 41.528 90.1728 41.64 89.3728 41.64Z" fill="#ECFBFA"/>
<path d="M78.1449 25.872V37.8C78.1449 38.392 78.2969 38.824 78.6009 39.096C78.9209 39.368 79.3449 39.504 79.8729 39.504C80.3049 39.504 80.6809 39.44 81.0009 39.312C81.3209 39.168 81.6169 38.976 81.8889 38.736L82.4649 40.608C82.0969 40.928 81.6409 41.184 81.0969 41.376C80.5689 41.552 79.9769 41.64 79.3209 41.64C78.6329 41.64 78.0009 41.528 77.4249 41.304C76.8489 41.08 76.4009 40.72 76.0809 40.224C75.7609 39.712 75.5929 39.048 75.5769 38.232V26.592L78.1449 25.872ZM82.2729 29.4V31.416H73.2729V29.4H82.2729Z" fill="#ECFBFA"/>
<path d="M70.8257 24V38.04C70.8257 38.632 70.9297 39.04 71.1377 39.264C71.3457 39.488 71.6897 39.6 72.1697 39.6C72.4577 39.6 72.6977 39.584 72.8897 39.552C73.0977 39.504 73.3537 39.424 73.6577 39.312L73.3697 41.232C73.0977 41.36 72.7857 41.456 72.4337 41.52C72.0817 41.6 71.7297 41.64 71.3777 41.64C70.3057 41.64 69.5137 41.368 69.0017 40.824C68.5057 40.264 68.2577 39.408 68.2577 38.256V24H70.8257Z" fill="#ECFBFA"/>
<path d="M62.2982 33.696C62.2982 32.896 62.0742 32.28 61.6262 31.848C61.1942 31.4 60.5942 31.176 59.8262 31.176C59.1062 31.176 58.4902 31.344 57.9782 31.68C57.4662 32.016 57.0902 32.56 56.8502 33.312L54.6902 32.4C54.9942 31.424 55.5862 30.64 56.4662 30.048C57.3622 29.456 58.5142 29.16 59.9222 29.16C60.8822 29.16 61.7302 29.32 62.4662 29.64C63.2022 29.944 63.7782 30.408 64.1942 31.032C64.6262 31.656 64.8422 32.456 64.8422 33.432V38.784C64.8422 39.376 65.1382 39.672 65.7302 39.672C66.0182 39.672 66.2982 39.632 66.5702 39.552L66.4262 41.328C66.0582 41.504 65.5942 41.592 65.0342 41.592C64.5222 41.592 64.0582 41.504 63.6422 41.328C63.2422 41.136 62.9222 40.856 62.6822 40.488C62.4582 40.104 62.3462 39.632 62.3462 39.072V38.904L62.8742 38.88C62.7302 39.504 62.4342 40.024 61.9862 40.44C61.5382 40.84 61.0182 41.144 60.4262 41.352C59.8342 41.544 59.2342 41.64 58.6262 41.64C57.8742 41.64 57.1942 41.52 56.5862 41.28C55.9942 41.04 55.5222 40.68 55.1702 40.2C54.8342 39.704 54.6662 39.096 54.6662 38.376C54.6662 37.48 54.9542 36.744 55.5302 36.168C56.1222 35.592 56.9542 35.2 58.0262 34.992L62.6822 34.08L62.6582 35.88L59.2742 36.576C58.6022 36.704 58.0982 36.888 57.7622 37.128C57.4262 37.368 57.2582 37.72 57.2582 38.184C57.2582 38.632 57.4262 38.992 57.7622 39.264C58.1142 39.52 58.5782 39.648 59.1542 39.648C59.5542 39.648 59.9382 39.6 60.3062 39.504C60.6902 39.408 61.0342 39.256 61.3382 39.048C61.6422 38.824 61.8742 38.544 62.0342 38.208C62.2102 37.856 62.2982 37.44 62.2982 36.96V33.696Z" fill="#ECFBFA"/>
<path d="M46.4025 41.4V29.4H48.5865L48.8265 31.56C49.1465 30.776 49.6185 30.184 50.2425 29.784C50.8825 29.368 51.6665 29.16 52.5945 29.16C52.8345 29.16 53.0745 29.184 53.3145 29.232C53.5545 29.264 53.7545 29.32 53.9145 29.4L53.5545 31.656C53.3785 31.592 53.1785 31.544 52.9545 31.512C52.7465 31.464 52.4585 31.44 52.0905 31.44C51.5945 31.44 51.1065 31.576 50.6265 31.848C50.1465 32.104 49.7465 32.496 49.4265 33.024C49.1225 33.552 48.9705 34.224 48.9705 35.04V41.4H46.4025Z" fill="#ECFBFA"/>
<path d="M36.5586 41.64C35.7746 41.64 35.0466 41.496 34.3746 41.208C33.7186 40.92 33.1906 40.456 32.7906 39.816C32.3906 39.176 32.1906 38.344 32.1906 37.32V29.4H34.7586V36.672C34.7586 37.76 34.9906 38.512 35.4546 38.928C35.9186 39.328 36.5666 39.528 37.3986 39.528C37.7986 39.528 38.1826 39.464 38.5506 39.336C38.9346 39.192 39.2786 38.976 39.5826 38.688C39.8866 38.384 40.1186 38 40.2786 37.536C40.4546 37.072 40.5426 36.528 40.5426 35.904V29.4H43.1106V41.4H40.8546L40.7346 39.456C40.3186 40.208 39.7586 40.76 39.0546 41.112C38.3506 41.464 37.5186 41.64 36.5586 41.64Z" fill="#ECFBFA"/>
<path d="M24.4116 41.64C23.2116 41.64 22.1556 41.392 21.2436 40.896C20.3316 40.4 19.6196 39.688 19.1076 38.76C18.6116 37.816 18.3636 36.696 18.3636 35.4C18.3636 34.104 18.6116 32.992 19.1076 32.064C19.6196 31.12 20.3236 30.4 21.2196 29.904C22.1156 29.408 23.1316 29.16 24.2676 29.16C25.4356 29.16 26.4276 29.4 27.2436 29.88C28.0596 30.36 28.6836 31.016 29.1156 31.848C29.5476 32.68 29.7636 33.624 29.7636 34.68C29.7636 34.968 29.7556 35.24 29.7396 35.496C29.7236 35.752 29.6996 35.976 29.6676 36.168H20.0196V34.2H28.5396L27.2676 34.584C27.2676 33.496 26.9956 32.664 26.4516 32.088C25.9076 31.496 25.1636 31.2 24.2196 31.2C23.5316 31.2 22.9316 31.36 22.4196 31.68C21.9076 32 21.5156 32.48 21.2436 33.12C20.9716 33.744 20.8356 34.512 20.8356 35.424C20.8356 36.32 20.9796 37.08 21.2676 37.704C21.5556 38.328 21.9636 38.8 22.4916 39.12C23.0196 39.44 23.6436 39.6 24.3636 39.6C25.1636 39.6 25.8116 39.448 26.3076 39.144C26.8036 38.84 27.1956 38.416 27.4836 37.872L29.5236 38.832C29.2356 39.408 28.8436 39.912 28.3476 40.344C27.8676 40.76 27.2916 41.08 26.6196 41.304C25.9476 41.528 25.2116 41.64 24.4116 41.64Z" fill="#ECFBFA"/>
<path d="M4.99219 41.4V29.4H7.27219L7.44019 32.52L7.10419 32.184C7.32819 31.496 7.64819 30.928 8.06419 30.48C8.49619 30.016 9.00019 29.68 9.57619 29.472C10.1682 29.264 10.7922 29.16 11.4482 29.16C12.2962 29.16 13.0562 29.328 13.7282 29.664C14.4162 29.984 14.9602 30.472 15.3602 31.128C15.7602 31.784 15.9602 32.616 15.9602 33.624V41.4H13.3922V34.416C13.3922 33.232 13.1442 32.416 12.6482 31.968C12.1682 31.504 11.5602 31.272 10.8242 31.272C10.2962 31.272 9.78419 31.4 9.28819 31.656C8.79219 31.896 8.37619 32.288 8.04019 32.832C7.72019 33.376 7.56019 34.104 7.56019 35.016V41.4H4.99219Z" fill="#ECFBFA"/>
</svg>
