<svg width="140" height="72" viewBox="0 0 140 72" fill="none" xmlns="http://www.w3.org/2000/svg">
<path d="M13.7574 41.6009V35.2289C13.7574 34.7249 13.7134 34.2089 13.6254 33.6809C13.5454 33.1449 13.3854 32.6489 13.1454 32.1929C12.9134 31.7369 12.5814 31.3689 12.1494 31.0889C11.7254 30.8089 11.1694 30.6689 10.4814 30.6689C10.0334 30.6689 9.60941 30.7449 9.20941 30.8969C8.80941 31.0409 8.45741 31.2769 8.15341 31.6049C7.85741 31.9329 7.62141 32.3649 7.44541 32.9009C7.27741 33.4369 7.19341 34.0889 7.19341 34.8569L5.63341 34.2689C5.63341 33.0929 5.85341 32.0569 6.29341 31.1609C6.73341 30.2569 7.36541 29.5529 8.18941 29.0489C9.01341 28.5449 10.0094 28.2929 11.1774 28.2929C12.0734 28.2929 12.8254 28.4369 13.4334 28.7249C14.0414 29.0129 14.5334 29.3929 14.9094 29.8649C15.2934 30.3289 15.5854 30.8369 15.7854 31.3889C15.9854 31.9409 16.1214 32.4809 16.1934 33.0089C16.2654 33.5369 16.3014 34.0009 16.3014 34.4009V41.6009H13.7574ZM4.64941 41.6009V28.6409H6.89341V32.3849H7.19341V41.6009H4.64941Z" fill="#ECFBFA"/>
<path d="M24.291 41.9609C23.003 41.9609 21.871 41.6809 20.895 41.1209C19.927 40.5529 19.171 39.7649 18.627 38.7569C18.091 37.7409 17.823 36.5649 17.823 35.2289C17.823 33.8129 18.087 32.5849 18.615 31.5449C19.151 30.5049 19.895 29.7009 20.847 29.1329C21.799 28.5649 22.907 28.2809 24.171 28.2809C25.491 28.2809 26.615 28.5889 27.543 29.2049C28.471 29.8129 29.163 30.6809 29.619 31.8089C30.083 32.9369 30.267 34.2769 30.171 35.8289H27.663V34.9169C27.647 33.4129 27.359 32.3009 26.799 31.5809C26.247 30.8609 25.403 30.5009 24.267 30.5009C23.011 30.5009 22.067 30.8969 21.435 31.6889C20.803 32.4809 20.487 33.6249 20.487 35.1209C20.487 36.5449 20.803 37.6489 21.435 38.4329C22.067 39.2089 22.979 39.5969 24.171 39.5969C24.955 39.5969 25.631 39.4209 26.199 39.0689C26.775 38.7089 27.223 38.1969 27.543 37.5329L30.003 38.3129C29.499 39.4729 28.735 40.3729 27.711 41.0129C26.687 41.6449 25.547 41.9609 24.291 41.9609ZM19.671 35.8289V33.8729H28.923V35.8289H19.671Z" fill="#ECFBFA"/>
<path d="M37.0273 41.9489C36.1313 41.9489 35.3793 41.8049 34.7713 41.5169C34.1633 41.2289 33.6673 40.8529 33.2833 40.3889C32.9073 39.9169 32.6193 39.4049 32.4193 38.8529C32.2193 38.3009 32.0833 37.7609 32.0113 37.2329C31.9393 36.7049 31.9033 36.2409 31.9033 35.8409V28.6409H34.4473V35.0129C34.4473 35.5169 34.4873 36.0369 34.5673 36.5729C34.6553 37.1009 34.8153 37.5929 35.0473 38.0489C35.2873 38.5049 35.6193 38.8729 36.0433 39.1529C36.4753 39.4329 37.0353 39.5729 37.7233 39.5729C38.1713 39.5729 38.5953 39.5009 38.9953 39.3569C39.3953 39.2049 39.7433 38.9649 40.0393 38.6369C40.3433 38.3089 40.5793 37.8769 40.7473 37.3409C40.9233 36.8049 41.0113 36.1529 41.0113 35.3849L42.5713 35.9729C42.5713 37.1489 42.3513 38.1889 41.9113 39.0929C41.4713 39.9889 40.8393 40.6889 40.0153 41.1929C39.1913 41.6969 38.1953 41.9489 37.0273 41.9489ZM41.3113 41.6009V37.8569H41.0113V28.6409H43.5433V41.6009H41.3113Z" fill="#ECFBFA"/>
<path d="M46.1889 41.6009V28.6409H48.4209V31.7849L48.1089 31.3769C48.2689 30.9609 48.4769 30.5809 48.7329 30.2369C48.9889 29.8849 49.2849 29.5969 49.6209 29.3729C49.9489 29.1329 50.3129 28.9489 50.7129 28.8209C51.1209 28.6849 51.5369 28.6049 51.9609 28.5809C52.3849 28.5489 52.7929 28.5689 53.1849 28.6409V30.9929C52.7609 30.8809 52.2889 30.8489 51.7689 30.8969C51.2569 30.9449 50.7849 31.1089 50.3529 31.3889C49.9449 31.6529 49.6209 31.9729 49.3809 32.3489C49.1489 32.7249 48.9809 33.1449 48.8769 33.6089C48.7729 34.0649 48.7209 34.5489 48.7209 35.0609V41.6009H46.1889Z" fill="#ECFBFA"/>
<path d="M58.0352 41.9609C57.0752 41.9609 56.2712 41.7849 55.6232 41.4329C54.9752 41.0729 54.4832 40.6009 54.1472 40.0169C53.8192 39.4249 53.6552 38.7769 53.6552 38.0729C53.6552 37.4169 53.7712 36.8409 54.0032 36.3449C54.2352 35.8489 54.5792 35.4289 55.0352 35.0849C55.4912 34.7329 56.0512 34.4489 56.7152 34.2329C57.2912 34.0649 57.9432 33.9169 58.6712 33.7889C59.3992 33.6609 60.1632 33.5409 60.9632 33.4289C61.7712 33.3169 62.5712 33.2049 63.3632 33.0929L62.4512 33.5969C62.4672 32.5809 62.2512 31.8289 61.8032 31.3409C61.3632 30.8449 60.6032 30.5969 59.5232 30.5969C58.8432 30.5969 58.2192 30.7569 57.6512 31.0769C57.0832 31.3889 56.6872 31.9089 56.4632 32.6369L54.1232 31.9169C54.4432 30.8049 55.0512 29.9209 55.9472 29.2649C56.8512 28.6089 58.0512 28.2809 59.5472 28.2809C60.7072 28.2809 61.7152 28.4809 62.5712 28.8809C63.4352 29.2729 64.0672 29.8969 64.4672 30.7529C64.6752 31.1769 64.8032 31.6249 64.8512 32.0969C64.8992 32.5689 64.9232 33.0769 64.9232 33.6209V41.6009H62.7032V38.6369L63.1352 39.0209C62.5992 40.0129 61.9152 40.7529 61.0832 41.2409C60.2592 41.7209 59.2432 41.9609 58.0352 41.9609ZM58.4792 39.9089C59.1912 39.9089 59.8032 39.7849 60.3152 39.5369C60.8272 39.2809 61.2392 38.9569 61.5512 38.5649C61.8632 38.1729 62.0672 37.7649 62.1632 37.3409C62.2992 36.9569 62.3752 36.5249 62.3912 36.0449C62.4152 35.5649 62.4272 35.1809 62.4272 34.8929L63.2432 35.1929C62.4512 35.3129 61.7312 35.4209 61.0832 35.5169C60.4352 35.6129 59.8472 35.7089 59.3192 35.8049C58.7992 35.8929 58.3352 36.0009 57.9272 36.1289C57.5832 36.2489 57.2752 36.3929 57.0032 36.5609C56.7392 36.7289 56.5272 36.9329 56.3672 37.1729C56.2152 37.4129 56.1392 37.7049 56.1392 38.0489C56.1392 38.3849 56.2232 38.6969 56.3912 38.9849C56.5592 39.2649 56.8152 39.4889 57.1592 39.6569C57.5032 39.8249 57.9432 39.9089 58.4792 39.9089Z" fill="#ECFBFA"/>
<path d="M67.5592 41.6009V23.9609H70.0672V41.6009H67.5592Z" fill="#ECFBFA"/>
<path d="M80.3668 41.6009C79.5508 41.7609 78.7508 41.8289 77.9668 41.8049C77.1828 41.7809 76.4828 41.6289 75.8668 41.3489C75.2508 41.0689 74.7868 40.6289 74.4748 40.0289C74.1948 39.4929 74.0428 38.9489 74.0188 38.3969C74.0028 37.8369 73.9948 37.2049 73.9948 36.5009V25.0409H76.5148V36.3809C76.5148 36.9009 76.5188 37.3529 76.5268 37.7369C76.5428 38.1209 76.6268 38.4449 76.7788 38.7089C77.0668 39.2049 77.5228 39.4889 78.1468 39.5609C78.7788 39.6249 79.5188 39.5969 80.3668 39.4769V41.6009ZM71.5108 30.6569V28.6409H80.3668V30.6569H71.5108Z" fill="#ECFBFA"/>
<path d="M87.5413 41.9609C86.2533 41.9609 85.1213 41.6809 84.1453 41.1209C83.1773 40.5529 82.4213 39.7649 81.8773 38.7569C81.3413 37.7409 81.0733 36.5649 81.0733 35.2289C81.0733 33.8129 81.3373 32.5849 81.8653 31.5449C82.4013 30.5049 83.1453 29.7009 84.0973 29.1329C85.0493 28.5649 86.1573 28.2809 87.4213 28.2809C88.7413 28.2809 89.8653 28.5889 90.7933 29.2049C91.7213 29.8129 92.4133 30.6809 92.8693 31.8089C93.3333 32.9369 93.5173 34.2769 93.4213 35.8289H90.9133V34.9169C90.8973 33.4129 90.6093 32.3009 90.0493 31.5809C89.4973 30.8609 88.6533 30.5009 87.5173 30.5009C86.2613 30.5009 85.3173 30.8969 84.6853 31.6889C84.0533 32.4809 83.7373 33.6249 83.7373 35.1209C83.7373 36.5449 84.0533 37.6489 84.6853 38.4329C85.3173 39.2089 86.2293 39.5969 87.4213 39.5969C88.2053 39.5969 88.8813 39.4209 89.4493 39.0689C90.0253 38.7089 90.4733 38.1969 90.7933 37.5329L93.2533 38.3129C92.7493 39.4729 91.9853 40.3729 90.9613 41.0129C89.9373 41.6449 88.7973 41.9609 87.5413 41.9609ZM82.9213 35.8289V33.8729H92.1733V35.8289H82.9213Z" fill="#ECFBFA"/>
<path d="M100.542 41.9609C99.3336 41.9609 98.2896 41.6609 97.4096 41.0609C96.5376 40.4609 95.8616 39.6449 95.3816 38.6129C94.9096 37.5729 94.6736 36.4049 94.6736 35.1089C94.6736 33.8049 94.9136 32.6409 95.3936 31.6169C95.8736 30.5849 96.5536 29.7729 97.4336 29.1809C98.3216 28.5809 99.3736 28.2809 100.59 28.2809C101.814 28.2809 102.842 28.5809 103.674 29.1809C104.514 29.7729 105.146 30.5849 105.57 31.6169C106.002 32.6489 106.218 33.8129 106.218 35.1089C106.218 36.4049 106.002 37.5689 105.57 38.6009C105.138 39.6329 104.502 40.4529 103.662 41.0609C102.822 41.6609 101.782 41.9609 100.542 41.9609ZM100.89 39.6929C101.714 39.6929 102.386 39.4969 102.906 39.1049C103.426 38.7129 103.806 38.1729 104.046 37.4849C104.286 36.7969 104.406 36.0049 104.406 35.1089C104.406 34.2129 104.282 33.4209 104.034 32.7329C103.794 32.0449 103.418 31.5089 102.906 31.1249C102.402 30.7409 101.758 30.5489 100.974 30.5489C100.142 30.5489 99.4576 30.7529 98.9216 31.1609C98.3856 31.5689 97.9856 32.1169 97.7216 32.8049C97.4656 33.4929 97.3376 34.2609 97.3376 35.1089C97.3376 35.9649 97.4656 36.7409 97.7216 37.4369C97.9856 38.1249 98.3776 38.6729 98.8976 39.0809C99.4256 39.4889 100.09 39.6929 100.89 39.6929ZM104.118 47.3609V37.9649H104.406V28.6409H106.638V47.3609H104.118Z" fill="#ECFBFA"/>
</svg>
